<?xml version="1.0" standalone="no"?><!DOCTYPE svg PUBLIC "-//W3C//DTD SVG 1.1//EN" "http://www.w3.org/Graphics/SVG/1.1/DTD/svg11.dtd"><svg t="1620956029339" class="icon" viewBox="0 0 1024 1024" version="1.1" xmlns="http://www.w3.org/2000/svg" p-id="28590" width="128" height="128" xmlns:xlink="http://www.w3.org/1999/xlink"><defs><style type="text/css"></style></defs><path d="M328.832 97.834667a42.666667 42.666667 0 0 0-60.330667 0L170.666667 195.669333 115.498667 140.501333a42.666667 42.666667 0 0 0-60.330667 60.330667l85.333333 85.333333a42.666667 42.666667 0 0 0 60.330667 0l128-128a42.666667 42.666667 0 0 0 0-60.330666zM448 128a64 64 0 1 0 0 128h426.666667a64 64 0 0 0 0-128h-426.666667zM384 490.666667a64 64 0 0 1 64-64h426.666667a64 64 0 0 1 0 128h-426.666667A64 64 0 0 1 384 490.666667z m0 298.666666a64 64 0 0 1 64-64h426.666667a64 64 0 0 1 0 128h-426.666667A64 64 0 0 1 384 789.333333zM268.501333 396.501333a42.666667 42.666667 0 0 1 60.330667 60.330667l-128 128a42.666667 42.666667 0 0 1-60.330667 0l-85.333333-85.333333a42.666667 42.666667 0 1 1 60.330667-60.330667L170.666667 494.336l97.834666-97.834667z m60.330667 298.666667a42.666667 42.666667 0 0 0-60.330667 0L170.666667 793.002667l-55.168-55.168a42.666667 42.666667 0 0 0-60.330667 60.330666l85.333333 85.333334a42.666667 42.666667 0 0 0 60.330667 0l128-128a42.666667 42.666667 0 0 0 0-60.330667z" p-id="28591" fill="#7d787a"></path></svg>