<?xml version="1.0" standalone="no"?><!DOCTYPE svg PUBLIC "-//W3C//DTD SVG 1.1//EN" "http://www.w3.org/Graphics/SVG/1.1/DTD/svg11.dtd"><svg t="1620956004037" class="icon" viewBox="0 0 1024 1024" version="1.1" xmlns="http://www.w3.org/2000/svg" p-id="28315" width="128" height="128" xmlns:xlink="http://www.w3.org/1999/xlink"><defs><style type="text/css"></style></defs><path d="M896 85.333333H128a42.666667 42.666667 0 0 0-42.666667 42.666667v768a42.666667 42.666667 0 0 0 42.666667 42.666667h256a42.666667 42.666667 0 0 0 42.666667-42.666667V426.666667h469.333333a42.666667 42.666667 0 0 0 42.666667-42.666667V128a42.666667 42.666667 0 0 0-42.666667-42.666667z m-42.666667 256h-85.333333V298.666667a42.666667 42.666667 0 0 0-85.333333 0v42.666666h-85.333334V298.666667a42.666667 42.666667 0 0 0-85.333333 0v42.666666h-85.333333V298.666667a42.666667 42.666667 0 0 0-85.333334 0v42.666666H298.666667a42.666667 42.666667 0 0 0 0 85.333334h42.666666v85.333333H298.666667a42.666667 42.666667 0 0 0 0 85.333333h42.666666v85.333334H298.666667a42.666667 42.666667 0 0 0 0 85.333333h42.666666v85.333333H170.666667V170.666667h682.666666z" p-id="28316" fill="#7d787a"></path></svg>