<?xml version="1.0" standalone="no"?><!DOCTYPE svg PUBLIC "-//W3C//DTD SVG 1.1//EN" "http://www.w3.org/Graphics/SVG/1.1/DTD/svg11.dtd"><svg t="1620955808347" class="icon" viewBox="0 0 1024 1024" version="1.1" xmlns="http://www.w3.org/2000/svg" p-id="25255" width="128" height="128" xmlns:xlink="http://www.w3.org/1999/xlink"><defs><style type="text/css"></style></defs><path d="M168 88l-18.016 16.992-44.992 44.992-16.992 18.016 12.992 20.992 67.008 112 8.992 16H271.04l128 127.008c-114.368 114.88-259.872 260.864-264.992 266.016-50.144 50.112-50.24 132.224 0.96 180 50.016 49.344 131.52 50.624 179.04 0l0.96-1.024L512 691.008l198.016 198.976 2.976 2.016c50.24 47.36 130.144 48 177.024-2.016v-0.96h0.96c49.024-50.144 49.536-131.648-0.96-179.04l-1.024-0.96-166.976-166.016c112.352-10.496 200.352-105.376 201.984-220h0.992c0.128-0.64 0-1.376 0-2.016V320c3.136-36.992-4.864-72.384-24-103.008L879.04 183.04l-149.024 148.992-44.992-47.008 152-152-44-17.984A224.96 224.96 0 0 0 704 96c-123.008 0-224 100.992-224 224 0 13.376 2.88 24.992 4.992 36.992-13.984 14.016-24.48 25.504-40.992 42.016L316.992 272V176.992l-16-8.992-112-67.008zM704 160c4.48 0 7.616 2.624 12 3.008l-120.992 120.992 21.984 23.008 90.016 92.992 21.984 23.008L856 296c0.64 7.36 5.888 12.736 4.992 20.992V320c0 88.128-71.872 160-160 160-11.744 0-25.984-2.752-41.984-6.016l-17.024-2.976-12 12-360.96 361.984h-1.024v1.024c-22.72 24.864-62.496 25.472-88.992-1.024v-0.992h-1.024c-24.864-22.72-25.472-62.496 1.024-88.992 12.128-12.16 246.976-249.024 361.984-364l13.024-12.992-5.024-18.016A195.616 195.616 0 0 1 544 320c0-88.128 71.872-160 160-160z m-526.016 8l75.008 46.016v32l-6.976 6.976h-32L168 178.016z m468 388.992l199.04 198.016v0.992h0.96c24.896 22.72 25.504 62.496-0.96 88.992h-1.024v1.024c-22.72 24.864-62.496 25.472-88.992-1.024l-198.016-198.976z" p-id="25256" fill="#7d787a"></path></svg>